<?xml version="1.0" encoding="UTF-8" standalone="no"?>
<!-- Created with Inkscape (http://www.inkscape.org/) -->

<svg
   width="498.677"
   height="1004"
   viewBox="0 0 131.94162 265.64165"
   version="1.1"
   id="svg6146"
   inkscape:version="1.2.1 (9c6d41e410, 2022-07-14)"
   sodipodi:docname="logo.svg"
   xmlns:inkscape="http://www.inkscape.org/namespaces/inkscape"
   xmlns:sodipodi="http://sodipodi.sourceforge.net/DTD/sodipodi-0.dtd"
   xmlns="http://www.w3.org/2000/svg"
   xmlns:svg="http://www.w3.org/2000/svg">
  <sodipodi:namedview
     id="namedview6148"
     pagecolor="#ffffff"
     bordercolor="#000000"
     borderopacity="0.25"
     inkscape:showpageshadow="2"
     inkscape:pageopacity="0.0"
     inkscape:pagecheckerboard="0"
     inkscape:deskcolor="#d1d1d1"
     inkscape:document-units="mm"
     showgrid="false"
     inkscape:zoom="1.4912879"
     inkscape:cx="502.25044"
     inkscape:cy="262.86005"
     inkscape:window-width="1920"
     inkscape:window-height="1017"
     inkscape:window-x="-8"
     inkscape:window-y="-8"
     inkscape:window-maximized="1"
     inkscape:current-layer="layer1" />
  <defs
     id="defs6143" />
  <g
     inkscape:label="Пласт 1"
     inkscape:groupmode="layer"
     id="layer1">
    <g
       id="g6129"
       transform="matrix(0.35277777,0,0,-0.35277777,131.93889,48.228602)">
      <path
         d="m 0,0 v 90.777 l -46.296,45.934 h -90.413 l -45.895,-45.896 -45.897,45.896 h -90.413 L -374,81.947 V -8.335 -8.79 l 100.293,100.293 45.896,-45.896 -144.99,-144.99 -1.199,1.198 v -90.413 l 191.967,-191.968 45.208,45.208 -190.769,190.769 L -182.604,0.4 0,-182.205 v 90.413 L -137.398,45.607 -91.502,91.502 Z M -191.167,-97.213 0,-288.379 v -97.645 L -137.398,-523.435 -91.502,-569.379 0,-477.913 v -91.371 l -46.296,-47.005 h -90.413 l -45.895,45.897 -45.897,-45.897 h -90.413 L -374,-560.372 v 91.384 l 100.293,-100.293 45.896,45.897 -144.99,144.99 -1.199,-1.199 v 0.454 89.505 0.455 l 1.37,1.371 45.208,-45.21 -0.172,-0.173 144.99,-144.994 140.999,140.995 -194.77,194.771 z"
         style="fill:#ff0000;fill-opacity:1;fill-rule:nonzero;stroke:none"
         id="path6131" />
    </g>
  </g>
</svg>
